<svg xmlns="http://www.w3.org/2000/svg" xmlns:xlink="http://www.w3.org/1999/xlink" viewBox="0 0 82.39 105.81"><defs><linearGradient id="a" x1="5.95" x2="82.02" y1="48.22" y2="48.22" gradientUnits="userSpaceOnUse"><stop offset="0" stop-color="#973e97"/><stop offset=".51" stop-color="#7a68a6"/><stop offset="1" stop-color="#5b77ba"/></linearGradient><linearGradient xlink:href="#a" id="b" x1="5.58" x2="82.39" y1="47.55" y2="47.55"/></defs><g data-name="Layer 2"><g data-name="Layer 3"><path fill="url(#a)" stroke="url(#b)" stroke-miterlimit="10" stroke-width=".75" d="M7.31 90.19a37.7 37.7 0 0 1 3.81-29.06 38.8 38.8 0 0 0 1.76 16.47l-.78-8.12a5 5 0 0 1 1.27 2.67c-1.83-13.19 6.81-25 18.17-30.83a48.67 48.67 0 0 0-7.62 17.91 34.35 34.35 0 0 1 16.75-20c2.85-1.52 5.89-2.67 8.61-4.41s5.17-4.18 6-7.3a32.6 32.6 0 0 1-5 17.24c2.9-1.48 4.5-4.66 5.44-7.77s1.43-6.4 3-9.26c2.55-4.68 7.61-7.55 10.3-12.15a14.77 14.77 0 0 0 .38-13.87c6.08 5.68 11.2 12.88 12.37 21.11a25.61 25.61 0 0 1-20 28.64 30.53 30.53 0 0 0 16.45-5.81A31.45 31.45 0 0 1 45 65.49l17.62.14A57.76 57.76 0 0 1 25.36 80l16.37.92c-4.22.2-8 2.63-11.31 5.27s-6.42 5.62-10.3 7.32-8.82 1.84-12-1c6.38-10.86 15.61-19.88 26-27 7.43-5.07 15.5-9.24 22.48-14.91s13-13.26 14.27-22.16c-1.77 6.84-6.33 12.68-11.67 17.31s-11.5 8.18-17.48 12C28.22 66.25 15 76.37 7.38 90.43c-.02-.08-.05-.16-.07-.24z"/><path fill="#973e97" d="M7.59 92.78a7.52 7.52 0 0 0 2.58 1.55l-4.43 7.76L0 105.81z"/><path fill="#45306d" d="M76 23.44c-6.51-1.08-12.8 2.33-15 5.87s-1.31 8.6 0 10.37a7.67 7.67 0 0 1 1.28 3.71 2.08 2.08 0 0 1 .81.31c1.18-.57 2.28-.17 4-.12 2.06.06 8.21-.71 10.38-7.1S76 23.44 76 23.44z"/><path fill="#793e7c" d="M75.09 24.49c-.62-.6-5.71 0-10 3.54s-4.44 9.42-1.21 12.48 8.11.65 10.37-2c2.94-3.43 4.09-10.85.84-14.02z"/><path fill="#9864a3" d="M71.59 30.7c-1.18-.72-3.08-2-5.45-.32s-4 5.29-1.73 7.92a5 5 0 0 0 7.43.38c1.83-1.78 3.16-5.97-.25-7.98z"/><path fill="#a39ece" d="M70.69 36.8c.31-1.61-1.69-2.63-1.79-2.69-.52-.33-2-1.06-3-.21-1.32 1.05-1.4 3.1-.54 3.3s1-.32 1.84 0c.61.54.27.95.82 1.59s2.35-.33 2.67-1.99z"/></g></g></svg>